<svg width="1000" height="1000" viewBox="0 0 1000 1000" fill="none" xmlns="http://www.w3.org/2000/svg">
<g clip-path="url(#clip0_44_14)">
<rect width="1000" height="1000" fill="white"/>
<g filter="url(#filter0_f_44_14)">
<circle cx="313" cy="419" r="500" fill="#68BB59"/>
</g>
<g filter="url(#filter1_f_44_14)">
<circle cx="690.66" cy="419" r="500" fill="#ACDF87"/>
</g>
<g filter="url(#filter2_f_44_14)">
<circle cx="807.681" cy="684.957" r="500" fill="#4C9A2A"/>
</g>
<g filter="url(#filter3_f_44_14)">
<circle cx="690.66" cy="887.085" r="500" fill="#76BA1B"/>
</g>
<g filter="url(#filter4_f_44_14)">
<circle cx="440.66" cy="807.298" r="500" fill="#A4DE02"/>
</g>
<g filter="url(#filter5_i_44_14)">
<path d="M641.843 152.994C646.125 155.476 649.438 159.337 651.242 163.946C653.046 168.554 653.233 173.639 651.774 178.368L572.985 434.378H718.358C722.63 434.376 726.809 435.626 730.379 437.972C733.949 440.318 736.754 443.659 738.448 447.581C740.141 451.503 740.649 455.835 739.909 460.043C739.169 464.25 737.212 468.149 734.282 471.257L384.302 843.111C380.915 846.712 376.409 849.06 371.517 849.772C366.626 850.484 361.637 849.518 357.365 847.032C353.093 844.545 349.788 840.685 347.991 836.081C346.193 831.476 346.008 826.398 347.466 821.675L426.255 565.621H280.882C276.61 565.622 272.431 564.373 268.861 562.027C265.291 559.681 262.486 556.34 260.792 552.418C259.099 548.496 258.591 544.164 259.331 539.956C260.071 535.749 262.028 531.85 264.958 528.742L614.938 156.888C618.321 153.292 622.82 150.945 627.705 150.231C632.589 149.516 637.572 150.474 641.843 152.95V152.994ZM331.498 521.873H455.872C459.296 521.873 462.671 522.675 465.728 524.217C468.784 525.759 471.436 527.996 473.47 530.749C475.504 533.502 476.864 536.695 477.439 540.069C478.015 543.444 477.79 546.906 476.784 550.178L416.937 744.548L667.698 478.126H543.368C539.944 478.126 536.569 477.324 533.512 475.782C530.456 474.24 527.804 472.003 525.77 469.25C523.736 466.496 522.376 463.304 521.801 459.93C521.225 456.555 521.45 453.093 522.456 449.821L582.303 255.451L331.498 521.873Z" fill="#1E293B"/>
</g>
</g>
<defs>
<filter id="filter0_f_44_14" x="-357" y="-251" width="1340" height="1340" filterUnits="userSpaceOnUse" color-interpolation-filters="sRGB">
<feFlood flood-opacity="0" result="BackgroundImageFix"/>
<feBlend mode="normal" in="SourceGraphic" in2="BackgroundImageFix" result="shape"/>
<feGaussianBlur stdDeviation="85" result="effect1_foregroundBlur_44_14"/>
</filter>
<filter id="filter1_f_44_14" x="20.6595" y="-251" width="1340" height="1340" filterUnits="userSpaceOnUse" color-interpolation-filters="sRGB">
<feFlood flood-opacity="0" result="BackgroundImageFix"/>
<feBlend mode="normal" in="SourceGraphic" in2="BackgroundImageFix" result="shape"/>
<feGaussianBlur stdDeviation="85" result="effect1_foregroundBlur_44_14"/>
</filter>
<filter id="filter2_f_44_14" x="137.681" y="14.9575" width="1340" height="1340" filterUnits="userSpaceOnUse" color-interpolation-filters="sRGB">
<feFlood flood-opacity="0" result="BackgroundImageFix"/>
<feBlend mode="normal" in="SourceGraphic" in2="BackgroundImageFix" result="shape"/>
<feGaussianBlur stdDeviation="85" result="effect1_foregroundBlur_44_14"/>
</filter>
<filter id="filter3_f_44_14" x="20.6595" y="217.085" width="1340" height="1340" filterUnits="userSpaceOnUse" color-interpolation-filters="sRGB">
<feFlood flood-opacity="0" result="BackgroundImageFix"/>
<feBlend mode="normal" in="SourceGraphic" in2="BackgroundImageFix" result="shape"/>
<feGaussianBlur stdDeviation="85" result="effect1_foregroundBlur_44_14"/>
</filter>
<filter id="filter4_f_44_14" x="-229.34" y="137.298" width="1340" height="1340" filterUnits="userSpaceOnUse" color-interpolation-filters="sRGB">
<feFlood flood-opacity="0" result="BackgroundImageFix"/>
<feBlend mode="normal" in="SourceGraphic" in2="BackgroundImageFix" result="shape"/>
<feGaussianBlur stdDeviation="85" result="effect1_foregroundBlur_44_14"/>
</filter>
<filter id="filter5_i_44_14" x="259" y="150" width="481.24" height="704" filterUnits="userSpaceOnUse" color-interpolation-filters="sRGB">
<feFlood flood-opacity="0" result="BackgroundImageFix"/>
<feBlend mode="normal" in="SourceGraphic" in2="BackgroundImageFix" result="shape"/>
<feColorMatrix in="SourceAlpha" type="matrix" values="0 0 0 0 0 0 0 0 0 0 0 0 0 0 0 0 0 0 127 0" result="hardAlpha"/>
<feOffset dy="4"/>
<feGaussianBlur stdDeviation="2"/>
<feComposite in2="hardAlpha" operator="arithmetic" k2="-1" k3="1"/>
<feColorMatrix type="matrix" values="0 0 0 0 0 0 0 0 0 0 0 0 0 0 0 0 0 0 0.25 0"/>
<feBlend mode="normal" in2="shape" result="effect1_innerShadow_44_14"/>
</filter>
<clipPath id="clip0_44_14">
<rect width="1000" height="1000" fill="white"/>
</clipPath>
</defs>
</svg>
